[Header]
FileType HTR
DataType HTRS
FileVersion 1
NumSegments 64
NumFrames 3
DataFrameRate 24
EulerRotationOrder ZYX
CalibrationUnits mm
RotationUnits Degrees
GlobalAxisofGravity Y
BoneLengthAxis Y
ScaleFactor 1.0
[SegmentNames&Hierarchy]
Hips	GLOBAL
Spine	Hips
Spine1	Spine
Spine2	Spine1
Neck	Spine2
Head	Neck
LeftEye	Head
RightEye	Head
LeftShoulder	Spine2
LeftArm	LeftShoulder
LeftForeArm	LeftArm
LeftHand	LeftForeArm
LeftHandThumb1	LeftHand
LeftHandThumb2	LeftHandThumb1
LeftHandThumb3	LeftHandThumb2
LeftHandThumb4	LeftHandThumb3
LeftHandIndex1	LeftHand
LeftHandIndex2	LeftHandIndex1
LeftHandIndex3	LeftHandIndex2
LeftHandIndex4	LeftHandIndex3
LeftHandMiddle1	LeftHand
LeftHandMiddle2	LeftHandMiddle1
LeftHandMiddle3	LeftHandMiddle2
LeftHandMiddle4	LeftHandMiddle3
LeftHandRing1	LeftHand
LeftHandRing2	LeftHandRing1
LeftHandRing3	LeftHandRing2
LeftHandRing4	LeftHandRing3
LeftHandPinky1	LeftHand
LeftHandPinky2	LeftHandPinky1
LeftHandPinky3	LeftHandPinky2
LeftHandPinky4	LeftHandPinky3
RightShoulder	Spine2
RightArm	RightShoulder
RightForeArm	RightArm
RightHand	RightForeArm
RightHandPinky1	RightHand
RightHandPinky2	RightHandPinky1
RightHandPinky3	RightHandPinky2
RightHandPinky4	RightHandPinky3
RightHandRing1	RightHand
RightHandRing2	RightHandRing1
RightHandRing3	RightHandRing2
RightHandRing4	RightHandRing3
RightHandMiddle1	RightHand
RightHandMiddle2	RightHandMiddle1
RightHandMiddle3	RightHandMiddle2
RightHandMiddle4	RightHandMiddle3
RightHandIndex1	RightHand
RightHandIndex2	RightHandIndex1
RightHandIndex3	RightHandIndex2
RightHandIndex4	RightHandIndex3
RightHandThumb1	RightHand
RightHandThumb2	RightHandThumb1
RightHandThumb3	RightHandThumb2
RightHandThumb4	RightHandThumb3
LeftUpLeg	Hips
LeftLeg	LeftUpLeg
LeftFoot	LeftLeg
LeftToeBase	LeftFoot
RightUpLeg	Hips
RightLeg	RightUpLeg
RightFoot	RightLeg
RightToeBase	RightFoot
[BasePosition]
Hips	0	0	0	0	0	0	1
Spine	0	0	0	0	0	0	1
Spine1	0	0	0	0	0	0	1
Spine2	0	0	0	0	0	0	1
Neck	0	0	0	0	0	0	1
Head	0	0	0	0	0	0	1
LeftEye	0	0	0	0	0	0	1
RightEye	0	0	0	0	0	0	1
LeftShoulder	0	0	0	0	0	0	1
LeftArm	0	0	0	0	0	0	1
LeftForeArm	0	0	0	0	0	0	1
LeftHand	0	0	0	0	0	0	1
LeftHandThumb1	0	0	0	0	0	0	1
LeftHandThumb2	0	0	0	0	0	0	1
LeftHandThumb3	0	0	0	0	0	0	1
LeftHandThumb4	0	0	0	0	0	0	1
LeftHandIndex1	0	0	0	0	0	0	1
LeftHandIndex2	0	0	0	0	0	0	1
LeftHandIndex3	0	0	0	0	0	0	1
LeftHandIndex4	0	0	0	0	0	0	1
LeftHandMiddle1	0	0	0	0	0	0	1
LeftHandMiddle2	0	0	0	0	0	0	1
LeftHandMiddle3	0	0	0	0	0	0	1
LeftHandMiddle4	0	0	0	0	0	0	1
LeftHandRing1	0	0	0	0	0	0	1
LeftHandRing2	0	0	0	0	0	0	1
LeftHandRing3	0	0	0	0	0	0	1
LeftHandRing4	0	0	0	0	0	0	1
LeftHandPinky1	0	0	0	0	0	0	1
LeftHandPinky2	0	0	0	0	0	0	1
LeftHandPinky3	0	0	0	0	0	0	1
LeftHandPinky4	0	0	0	0	0	0	1
RightShoulder	0	0	0	0	0	0	1
RightArm	0	0	0	0	0	0	1
RightForeArm	0	0	0	0	0	0	1
RightHand	0	0	0	0	0	0	1
RightHandPinky1	0	0	0	0	0	0	1
RightHandPinky2	0	0	0	0	0	0	1
RightHandPinky3	0	0	0	0	0	0	1
RightHandPinky4	0	0	0	0	0	0	1
RightHandRing1	0	0	0	0	0	0	1
RightHandRing2	0	0	0	0	0	0	1
RightHandRing3	0	0	0	0	0	0	1
RightHandRing4	0	0	0	0	0	0	1
RightHandMiddle1	0	0	0	0	0	0	1
RightHandMiddle2	0	0	0	0	0	0	1
RightHandMiddle3	0	0	0	0	0	0	1
RightHandMiddle4	0	0	0	0	0	0	1
RightHandIndex1	0	0	0	0	0	0	1
RightHandIndex2	0	0	0	0	0	0	1
RightHandIndex3	0	0	0	0	0	0	1
RightHandIndex4	0	0	0	0	0	0	1
RightHandThumb1	0	0	0	0	0	0	1
RightHandThumb2	0	0	0	0	0	0	1
RightHandThumb3	0	0	0	0	0	0	1
RightHandThumb4	0	0	0	0	0	0	1
LeftUpLeg	0	0	0	0	0	0	1
LeftLeg	0	0	0	0	0	0	1
LeftFoot	0	0	0	0	0	0	1
LeftToeBase	0	0	0	0	0	0	1
RightUpLeg	0	0	0	0	0	0	1
RightLeg	0	0	0	0	0	0	1
RightFoot	0	0	0	0	0	0	1
RightToeBase	0	0	0	0	0	0	1
[Hips]
14	-37.16553497	1022.315735	-105.3867493	-7.421507835	42.08739853	-3.880983353	1.0
15	-36.15360641	1024.850464	-96.06682587	-8.629845619	47.56898499	-4.871065617	1.0
16	-33.24171448	1027.72644	-84.30104065	-9.991703987	53.39809036	-6.2857337	1.0
[Spine]
14	0	101.8159943	1.315000057	3.5337255	2.591127634	2.538264751	1.0
15	0	101.8159943	1.315000057	3.73657012	2.361405373	2.683458567	1.0
16	0	101.8159943	1.315000057	4.074818611	2.155947685	2.55170536	1.0
[Spine1]
14	0	100.8349991	-10.00800037	1.181411028	1.793076634	5.161528111	1.0
15	0	100.8349991	-10.00800037	1.300296664	1.795562506	4.874906063	1.0
16	0	100.8349991	-10.00800037	1.543084621	1.852638841	4.491892338	1.0
[Spine2]
14	0	91	-13.73399925	1.09036541	1.414441705	0.9504524469	1.0
15	0	91	-13.73399925	1.245677829	1.417283058	0.8417975903	1.0
16	0	91	-13.73399925	1.517594695	1.518749833	0.9773521423	1.0
[Neck]
14	0	166.7169952	-25.16200066	7.459097385	6.201010704	-0.8064323068	1.0
15	0	166.7169952	-25.16200066	7.185687542	5.169686317	-0.6415991187	1.0
16	0	166.7169952	-25.16200066	6.777215481	4.056324959	-0.348993063	1.0
[Head]
14	0	96.17900085	16.84999847	-3.985227585	23.74369049	-10.34541321	1.0
15	0	96.17900085	16.84999847	-4.2944417	21.02689362	-9.534261703	1.0
16	0	96.17900085	16.84999847	-4.695178986	17.67141342	-7.976816654	1.0
[LeftEye]
14	30.6760006	64.09500122	92.83599854	0	0	0	1.0
15	30.6760006	64.09500122	92.83599854	0	0	0	1.0
16	30.6760006	64.09500122	92.83599854	0	0	0	1.0
[RightEye]
14	-30.6760006	64.09500122	92.83499908	0	0	0	1.0
15	-30.6760006	64.09500122	92.83499908	0	0	0	1.0
16	-30.6760006	64.09500122	92.83499908	0	0	0	1.0
[LeftShoulder]
14	45.70400238	109.4599991	-26.28000069	6.403539658	-7.112798214	-20.73513794	1.0
15	45.70400238	109.4599991	-26.28000069	6.790813923	-5.609593868	-21.44625473	1.0
16	45.70400238	109.4599991	-26.28000069	7.110839367	-4.541330338	-21.96577072	1.0
[LeftArm]
14	105.923996	-5.24600029	-22.32099915	21.85762405	2.709372044	-60.38265228	1.0
15	105.923996	-5.24600029	-22.32099915	23.02387428	2.118850946	-60.71959305	1.0
16	105.923996	-5.24600029	-22.32099915	24.16542053	1.13897562	-60.87049103	1.0
[LeftForeArm]
14	278.414978	-0.0009999999311	0	1.95012035e-06	-21.96955681	-0.00020637548	1.0
15	278.414978	-0.0009999999311	0	-8.952877124e-07	-20.41025352	-0.0002030617179	1.0
16	278.414978	-0.0009999999311	0	2.198990387e-06	-18.43526459	-0.0002021149849	1.0
[LeftHand]
14	283.2879944	0	0	-28.96732712	-3.469118595	13.94110107	1.0
15	283.2879944	0	0	-31.63354683	-3.970915079	15.7367487	1.0
16	283.2879944	0	0	-34.34313965	-4.377715111	16.19831467	1.0
[LeftHandThumb1]
14	24.6609993	-15.75	26.8239994	-0.4889881611	2.201389551	4.818526268	1.0
15	24.6609993	-15.75	26.8239994	-0.4889881611	2.201389551	4.818526268	1.0
16	24.6609993	-15.75	26.8239994	-0.4889881611	2.201389551	4.818526268	1.0
[LeftHandThumb2]
14	32.29800034	-18.64699936	18.64699936	20.45001984	17.47384834	22.4843998	1.0
15	32.29800034	-18.64699936	18.64699936	19.72668266	17.72221756	22.30343056	1.0
16	32.29800034	-18.64699936	18.64699936	18.78367043	17.32091904	21.86326027	1.0
[LeftHandThumb3]
14	26.52600098	-15.31499958	15.31499958	-12.92114353	4.916118622	7.920227528	1.0
15	26.52600098	-15.31499958	15.31499958	-13.09209347	5.446859837	7.771920681	1.0
16	26.52600098	-15.31499958	15.31499958	-13.10452938	5.895990372	7.62344408	1.0
[LeftHandThumb4]
14	19.54599953	-11.28499985	11.28499985	0	0	0	1.0
15	19.54599953	-11.28499985	11.28499985	0	0	0	1.0
16	19.54599953	-11.28499985	11.28499985	0	0	0	1.0
[LeftHandIndex1]
14	91.09299469	-5.170999527	22.60099792	0.2318252772	-0.7075797915	-7.926529884	1.0
15	91.09299469	-5.170999527	22.60099792	0.1805293262	-0.884396553	-7.611007214	1.0
16	91.09299469	-5.170999527	22.60099792	0.1321393549	-1.049405694	-7.316395283	1.0
[LeftHandIndex2]
14	36.76399994	0	0	-0.2673055232	1.747128248	-17.39650726	1.0
15	36.76399994	0	0	-0.2669379413	1.745976448	-17.3847084	1.0
16	36.76399994	0	0	-0.2669028342	1.745812893	-17.3830986	1.0
[LeftHandIndex3]
14	28.83100128	0	0	-0.05770466104	0.8193655014	-8.058382034	1.0
15	28.83100128	0	0	-0.05755442381	0.8181666732	-8.046626091	1.0
16	28.83100128	0	0	-0.05752302334	0.8180118203	-8.044995308	1.0
[LeftHandIndex4]
14	23.92700005	0	0	0	0	0	1.0
15	23.92700005	0	0	0	0	0	1.0
16	23.92700005	0	0	0	0	0	1.0
[LeftHandMiddle1]
14	95.33399963	0	0	-0.821118176	3.100951672	-16.10051155	1.0
15	95.33399963	0	0	-0.798584342	2.93317461	-15.77118492	1.0
16	95.33399963	0	0	-0.7748181224	2.840742111	-15.41921425	1.0
[LeftHandMiddle2]
14	36.98199844	0	0	-0.2675860524	1.747976661	-17.40542412	1.0
15	36.98199844	0	0	-0.2667518258	1.745312333	-17.37799072	1.0
16	36.98199844	0	0	-0.2658728957	1.742506623	-17.34913826	1.0
[LeftHandMiddle3]
14	29.50900078	0	0	-0.2991296351	1.845547557	-18.41137695	1.0
15	29.50900078	0	0	-0.2982468903	1.84290719	-18.38414192	1.0
16	29.50900078	0	0	-0.2973301709	1.840139985	-18.35547829	1.0
[LeftHandMiddle4]
14	28.3390007	0	0	0	0	0	1.0
15	28.3390007	0	0	0	0	0	1.0
16	28.3390007	0	0	0	0	0	1.0
[LeftHandRing1]
14	91.04499817	-0.4390000105	-18.65100098	-1.207541943	3.490749836	-21.46414375	1.0
15	91.04499817	-0.4390000105	-18.65100098	-1.197582603	3.379481554	-21.33464432	1.0
16	91.04499817	-0.4390000105	-18.65100098	-1.178775191	3.233653545	-21.08802605	1.0
[LeftHandRing2]
14	31.54000092	0	0	-0.3825368881	2.079291344	-20.84688759	1.0
15	31.54000092	0	0	-0.3823915422	2.078896761	-20.84266281	1.0
16	31.54000092	0	0	-0.3814982176	2.076544046	-20.81809425	1.0
[LeftHandRing3]
14	29.37700081	0	0	-0.2797444165	1.786288619	-17.79977417	1.0
15	29.37700081	0	0	-0.2796384096	1.7859689	-17.79616165	1.0
16	29.37700081	0	0	-0.2788931131	1.78365016	-17.77232361	1.0
[LeftHandRing4]
14	26.47500038	0	0	0	0	0	1.0
15	26.47500038	0	0	0	0	0	1.0
16	26.47500038	0	0	0	0	0	1.0
[LeftHandPinky1]
14	80.77799988	-4.887000084	-38.06099701	-1.658252835	6.052266121	-27.03170204	1.0
15	80.77799988	-4.887000084	-38.06099701	-1.655646682	5.973255157	-26.96627998	1.0
16	80.77799988	-4.887000084	-38.06099701	-1.641015768	5.880963326	-26.74982834	1.0
[LeftHandPinky2]
14	36	0	0	-0.2654275894	1.741104841	-17.33464622	1.0
15	36	0	0	-0.2656478882	1.74179554	-17.3417263	1.0
16	36	0	0	-0.2657356858	1.742082596	-17.34469032	1.0
[LeftHandPinky3]
14	21.14200211	0	0	-0.2388646603	1.653623462	-16.43785095	1.0
15	21.14200211	0	0	-0.239060238	1.654294848	-16.44465637	1.0
16	21.14200211	0	0	-0.2391427904	1.654551983	-16.44732857	1.0
[LeftHandPinky4]
14	19.75699997	0	0	0	0	0	1.0
15	19.75699997	0	0	0	0	0	1.0
16	19.75699997	0	0	0	0	0	1.0
[RightShoulder]
14	-45.70000076	109.4620056	-26.28000069	5.082026958	14.08552837	15.78511429	1.0
15	-45.70000076	109.4620056	-26.28000069	5.032813072	13.89643574	15.85213089	1.0
16	-45.70000076	109.4620056	-26.28000069	5.027468681	13.86234951	15.93405056	1.0
[RightArm]
14	-105.9280014	-5.248000145	-22.32099915	26.8033371	-9.06593132	47.60377502	1.0
15	-105.9280014	-5.248000145	-22.32099915	25.98504257	-8.00859642	49.02349472	1.0
16	-105.9280014	-5.248000145	-22.32099915	25.84459305	-5.963195801	51.32528687	1.0
[RightForeArm]
14	-278.414978	0	0	-5.785364465e-06	14.77769566	1.208191043e-05	1.0
15	-278.414978	0	0	2.842865797e-06	13.8277483	-2.930468781e-06	1.0
16	-278.414978	0	0	1.495652486e-05	12.61934566	-9.914027032e-06	1.0
[RightHand]
14	-283.2879944	0	0.0009999999311	-28.21050644	-11.29229259	6.668796062	1.0
15	-283.2879944	0	0.0009999999311	-27.4895916	-10.79845333	6.619980335	1.0
16	-283.2879944	0	0.0009999999311	-26.02675819	-9.085139275	6.870148659	1.0
[RightHandPinky1]
14	-80.76699829	-4.885000229	-38.06000137	-1.645312428	-4.239445686	27.21231651	1.0
15	-80.76699829	-4.885000229	-38.06000137	-1.540745735	-4.614051819	26.74362946	1.0
16	-80.76699829	-4.885000229	-38.06000137	-1.540478706	-4.609545708	26.72907639	1.0
[RightHandPinky2]
14	-36	0	0.0009999999311	-0.2181997299	-1.406116486	17.66114426	1.0
15	-36	0	0.0009999999311	-0.216156587	-1.399653196	17.57745171	1.0
16	-36	0	0.0009999999311	-0.2133532465	-1.390745282	17.46210861	1.0
[RightHandPinky3]
14	-21.14200211	0	0	-0.1968297213	-1.337053657	16.74875069	1.0
15	-21.14200211	0	0	-0.1950943172	-1.33127749	16.67405319	1.0
16	-21.14200211	0	0	-0.1924304664	-1.322332382	16.55861092	1.0
[RightHandPinky4]
14	-19.75699997	0	0	0	0	0	1.0
15	-19.75699997	0	0	0	0	0	1.0
16	-19.75699997	0	0	0	0	0	1.0
[RightHandRing1]
14	-91.03599548	-0.4390000105	-18.65100098	-1.108420014	-2.706746101	21.43346977	1.0
15	-91.03599548	-0.4390000105	-18.65100098	-1.076858997	-2.781189203	20.95801926	1.0
16	-91.03599548	-0.4390000105	-18.65100098	-1.076413155	-2.770003319	20.95181465	1.0
[RightHandRing2]
14	-31.54000092	0	0	-0.3070405126	-1.659684658	20.96151733	1.0
15	-31.54000092	0	0	-0.3066308796	-1.658597946	20.94734955	1.0
16	-31.54000092	0	0	-0.3065706789	-1.658431053	20.94510841	1.0
[RightHandRing3]
14	-29.37700081	0	0	-0.2248601019	-1.426835179	17.91030121	1.0
15	-29.37700081	0	0	-0.2244944721	-1.425730467	17.89595604	1.0
16	-29.37700081	0	0	-0.2244427353	-1.425559402	17.89369202	1.0
[RightHandRing4]
14	-26.47500038	0	0	0	0	0	1.0
15	-26.47500038	0	0	0	0	0	1.0
16	-26.47500038	0	0	0	0	0	1.0
[RightHandMiddle1]
14	-95.32500458	0	0	-0.7141321301	-2.35430932	15.21705246	1.0
15	-95.32500458	0	0	-0.6922863126	-2.278909445	14.85179138	1.0
16	-95.32500458	0	0	-0.6935772896	-2.25983429	14.87397289	1.0
[RightHandMiddle2]
14	-36.98199844	0	0	-0.2150567025	-1.396177053	17.51276398	1.0
15	-36.98199844	0	0	-0.2134275436	-1.391039848	17.44629097	1.0
16	-36.98199844	0	0	-0.2130157053	-1.389695168	17.42867661	1.0
[RightHandMiddle3]
14	-29.50900078	0	0	-0.2403025776	-1.475797057	18.52084351	1.0
15	-29.50900078	0	0	-0.2386083603	-1.470696926	18.4545517	1.0
16	-29.50900078	0	0	-0.2381678075	-1.469358206	18.43704414	1.0
[RightHandMiddle4]
14	-28.3390007	0	0.0009999999311	0	0	0	1.0
15	-28.3390007	0	0.0009999999311	0	0	0	1.0
16	-28.3390007	0	0.0009999999311	0	0	0	1.0
[RightHandIndex1]
14	-91.08300018	-5.167999744	22.60099792	0.1609369069	1.148945451	7.740355492	1.0
15	-91.08300018	-5.167999744	22.60099792	0.2019228935	1.153555155	7.264798641	1.0
16	-91.08300018	-5.167999744	22.60099792	0.192205742	1.169027686	7.280894756	1.0
[RightHandIndex2]
14	-36.76399994	0	0	-0.2117104828	-1.38552916	17.37480927	1.0
15	-36.76399994	0	0	-0.2134387344	-1.391049743	17.44630051	1.0
16	-36.76399994	0	0	-0.2136785537	-1.391773701	17.45580292	1.0
[RightHandIndex3]
14	-28.83100128	0	0	-0.04539176822	-0.6474856138	8.020692825	1.0
15	-28.83100128	0	0	-0.04621420801	-0.65321064	8.092141151	1.0
16	-28.83100128	0	0	-0.04632411152	-0.6539747715	8.101646423	1.0
[RightHandIndex4]
14	-23.92700005	0	0	0	0	0	1.0
15	-23.92700005	0	0	0	0	0	1.0
16	-23.92700005	0	0	0	0	0	1.0
[RightHandThumb1]
14	-24.64799881	-15.72700024	26.82600021	-1.658465981	-0.2891423702	-4.221325874	1.0
15	-24.64799881	-15.72700024	26.82600021	-1.658465981	-0.2891423702	-4.221325874	1.0
16	-24.64799881	-15.72700024	26.82600021	-1.658465981	-0.2891423702	-4.221325874	1.0
[RightHandThumb2]
14	-32.29800034	-18.64699936	18.64699936	22.80196381	-22.6903801	-23.74873543	1.0
15	-32.29800034	-18.64699936	18.64699936	22.71154785	-22.85127068	-23.91470909	1.0
16	-32.29800034	-18.64699936	18.64699936	22.74479103	-22.78237534	-23.91030121	1.0
[RightHandThumb3]
14	-26.52600098	-15.31399918	15.31399918	-14.48294926	-6.682332993	-11.39212799	1.0
15	-26.52600098	-15.31399918	15.31399918	-14.49898434	-6.717163563	-11.37310791	1.0
16	-26.52600098	-15.31399918	15.31399918	-14.50224495	-6.722612858	-11.37215805	1.0
[RightHandThumb4]
14	-19.54599953	-11.28499985	11.28499985	0	0	0	1.0
15	-19.54599953	-11.28499985	11.28499985	0	0	0	1.0
16	-19.54599953	-11.28499985	11.28499985	0	0	0	1.0
[LeftUpLeg]
14	82.07800293	-67.51699829	-15.99599934	-12.25787354	35.2608223	3.884602547	1.0
15	82.07800293	-67.51699829	-15.99599934	-11.84930134	35.24666977	4.064514637	1.0
16	82.07800293	-67.51699829	-15.99599934	-11.54922867	35.28597641	4.303941727	1.0
[LeftLeg]
14	0	-443.7049866	2.845999956	22.17004967	6.467328548	10.0821867	1.0
15	0	-443.7049866	2.845999956	20.62391281	6.478113174	10.45007038	1.0
16	0	-443.7049866	2.845999956	18.86291313	6.648813248	10.60658932	1.0
[LeftFoot]
14	0	-444.2789917	-29.8219986	-4.565505981	15.77726364	-6.93194294	1.0
15	0	-444.2789917	-29.8219986	-3.253531218	10.32503414	-6.360973358	1.0
16	0	-444.2789917	-29.8219986	-1.942587852	4.376739025	-5.960568905	1.0
[LeftToeBase]
14	0	-87.28699493	107.1060028	-4.928526878	1.604784529e-06	1.898583491e-06	1.0
15	0	-87.28699493	107.1060028	-4.928526878	-8.189631444e-06	2.619250154e-06	1.0
16	0	-87.28699493	107.1060028	-4.92852354	-1.727941344e-05	1.607016884e-06	1.0
[RightUpLeg]
14	-82.07800293	-67.51699829	-15.99599934	-19.70389557	-20.40965462	0.7562527657	1.0
15	-82.07800293	-67.51699829	-15.99599934	-18.77415276	-17.06383514	1.746263027	1.0
16	-82.07800293	-67.51699829	-15.99599934	-17.09000969	-11.84982586	3.409346342	1.0
[RightLeg]
14	0	-443.7049866	2.861999989	42.25600052	-2.560507536	0.871107161	1.0
15	0	-443.7049866	2.861999989	39.00267792	-0.3109094799	0.8642594218	1.0
16	0	-443.7049866	2.861999989	32.57971573	1.627803445	-1.860422969	1.0
[RightFoot]
14	0	-444.2770081	-29.83799934	7.339616776	-29.70324898	-3.212762356	1.0
15	0	-444.2770081	-29.83799934	8.126924515	-26.57029533	-0.8272109628	1.0
16	0	-444.2770081	-29.83799934	5.780255795	-27.08831406	2.697580099	1.0
[RightToeBase]
14	0	-87.28699493	107.1060028	-10.53531551	0.6259724498	4.522760391	1.0
15	0	-87.28699493	107.1060028	-11.7778244	0.8881211877	6.663809776	1.0
16	0	-87.28699493	107.1060028	-9.387683868	0.4583266675	3.567153454	1.0
[EndOfFile]
